<svg width="114" height="110" viewBox="0 0 114 110" fill="none" xmlns="http://www.w3.org/2000/svg">
<g clip-path="url(#clip0_69_249)">
<path fill-rule="evenodd" clip-rule="evenodd" d="M3.64251 49.1918C3.03698 46.9663 3.60484 45.3063 3.60484 43.5713C3.64251 40.5911 3.75615 37.8376 5.8776 34.8574C6.10488 34.4802 5.3474 33.9515 5.3474 33.4986C5.99124 32.6309 7.16561 32.3663 7.65685 31.4605C8.03543 30.7811 7.80815 29.4611 8.14907 28.7824C9.24681 26.632 10.2312 24.4819 11.4806 22.4072C12.427 20.8604 14.3956 19.8798 15.607 18.4085C16.4398 17.39 16.4778 15.8812 17.1593 14.8627C18.0284 13.6201 19.6187 14.2995 20.5272 13.0164C21.6635 11.7715 24.1616 11.5451 25.335 10.4888C26.2441 9.69681 27.0386 8.37654 27.7958 7.05627C28.2123 6.37688 30.5974 7.39564 31.0517 6.75443C31.6195 5.9246 33.4368 3.88742 34.1183 3.5102C34.9511 4.4911 37.7148 5.17016 40.1755 6.52796C40.6674 4.64186 43.2798 3.0576 43.8476 0.417049C48.0876 -0.827844 49.6019 1.09644 55.0533 1.24687C56.8715 1.28472 60.3914 0.00230049 62.3586 0.190911C65.0087 0.492429 67.9996 2.75575 70.9902 2.64285C75.6468 2.52962 80.0384 2.22777 85.1492 4.4911C89.0483 6.18859 90.9412 12.9786 96.5065 15.7323C101.011 18.5237 102.412 19.5421 103.775 22.2959C104.267 23.3521 104.381 25.2761 104.684 26.2945C104.874 26.8982 106.388 27.2004 106.426 27.992C106.501 28.8597 106.956 29.9535 106.956 30.859C106.956 31.915 106.539 32.7073 106.577 33.4996C107.297 35.9907 111.499 38.2902 112.218 40.7422C112.673 42.1757 112.029 43.4959 111.764 45.0048C111.574 45.9479 112.331 46.8531 112.521 47.7961C112.823 49.5315 111.233 49.7576 111.574 50.8517C111.423 54.171 114.073 55.4538 113.997 58.8103C113.883 61.3013 109.719 61.2247 109.303 63.9406C108.962 66.3925 111.044 71.1078 109.605 73.8616C107.296 78.275 107.599 84.4238 105.138 85.329C101.353 87.3671 102.488 91.591 98.8539 93.6657C95.5604 95.5518 92.1152 96.7967 88.67 98.7203C86.2473 99.9652 87.5336 103.851 85.1495 105.133C83.8245 105.812 79.6222 104.643 78.0699 105.284C77.0101 105.699 76.2906 106.68 75.1549 106.982C73.8299 107.359 71.6341 105.963 69.9305 106.227C69.06 106.378 68.6814 108.189 67.885 108.339C67.5064 108.415 67.1278 108.339 66.8249 108.415C65.5379 108.792 65.6515 109.434 64.5914 110C62.9635 110 60.4648 109.623 58.0797 109.623C57.2469 109.623 56.679 109.963 55.8069 109.963C54.4432 109.963 54.0656 108.83 52.7783 108.83C51.1874 108.83 48.7276 109.396 47.5542 109.396C46.4178 109.17 44.9041 108.151 43.4655 108.415C42.5564 108.604 42.4811 109.396 41.2317 109.17C39.5661 108.868 40.3612 108.528 39.0362 108.076C37.5975 107.623 36.9907 108.717 35.2124 108.227C34.6826 108.038 33.5468 106.831 32.903 106.567C31.3887 106.001 31.4647 104.681 30.026 103.587C27.6409 101.775 25.1045 101.927 22.833 101.512C22.1136 100.305 20.6372 98.7947 19.6151 97.2871C18.8956 96.2312 18.706 95.0616 18.0242 94.3072C15.942 91.9306 14.2764 91.1762 12.7621 88.8375C11.8157 87.4418 13.065 85.8197 12.0803 84.3862C11.2095 83.1413 9.58026 82.274 8.78674 80.9159C7.68899 79.1805 7.31042 75.8612 6.25034 74.0896C5.94741 73.5995 4.84967 73.7124 4.5844 73.2223C4.35713 72.8451 5.00097 72.166 4.4331 71.751C3.82725 71.298 3.22172 67.5261 3.48666 65.64C3.86524 63.2635 0.420059 63.4146 0.00381879 59.6045C-0.109819 58.171 0.912923 57.1134 1.70741 55.5683C2.08599 54.776 1.40449 53.4557 1.70741 52.5881C2.23729 51.1924 3.67595 50.2494 3.63796 49.1931L3.64251 49.1918Z" fill="#2D2D2D"/>
<path fill-rule="evenodd" clip-rule="evenodd" d="M16.3631 34.2161C19.4297 28.9351 21.7012 23.654 25.9032 19.6553C34.8374 11.2057 47.4058 7.47099 59.5202 9.13096C66.6375 10.1115 73.7549 9.62141 80.3043 13.3936C85.3771 16.2982 88.9359 20.6728 92.4564 24.8235C94.8795 27.6902 96.848 29.9913 98.514 33.1977C99.5737 35.1971 101.05 38.5163 101.505 41.1194C101.808 43.0055 103.323 48.3241 103.17 50.1727C102.83 53.9449 102.261 57.302 102.148 60.8102C101.921 68.8829 102.83 73.9376 98.476 81.4441C96.2425 85.3674 92.1538 87.6683 89.1629 90.4599C86.5885 92.874 83.03 94.7979 80.1527 96.6087C73.6792 100.607 65.7291 99.8904 57.9303 100.004C52.3653 100.079 46.6486 101.211 41.2349 100.117C38.1306 99.5132 35.2157 97.5139 32.1491 95.7785C29.537 94.2321 27.2276 91.1011 24.9941 89.215C22.609 87.1769 20.2995 86.3105 18.4067 83.8961C14.5076 78.9547 13.2959 73.22 11.5923 67.2996C10.2286 62.5469 9.3588 57.6051 9.2075 52.6634C8.98023 45.0436 12.2361 41.308 16.3625 34.2174L16.3631 34.2161Z" fill="#282828"/>
<path fill-rule="evenodd" clip-rule="evenodd" d="M22.7985 37.5357C25.3729 33.1223 27.2658 28.6714 30.8243 25.3136C38.3201 18.2609 48.844 15.0904 58.9526 16.4867C64.9721 17.3166 70.9157 16.9397 76.4051 20.0703C80.6451 22.5223 83.636 26.1813 86.5887 29.6516C88.5952 32.0282 90.2611 33.9521 91.6618 36.6681C92.5326 38.3656 93.7816 41.1193 94.1618 43.3073C94.4271 44.8925 95.6762 49.3428 95.5628 50.8892C95.2979 54.0597 94.8057 56.8872 94.6921 59.8296C94.5028 66.5817 95.2599 70.8066 91.6255 77.1054C89.7706 80.3875 86.3254 82.3111 83.827 84.6877C81.6688 86.687 78.7162 88.3092 76.2554 89.818C70.8417 93.1752 64.1773 92.5715 57.6292 92.6472C52.9726 92.7226 48.2027 93.6656 43.6598 92.7601C41.0475 92.2321 38.6247 90.5725 36.0503 89.1011C33.8545 87.8562 31.9239 85.2157 30.0311 83.6314C28.0245 81.8964 26.1317 81.1795 24.5417 79.1426C21.2465 75.0314 20.2241 70.2032 18.8234 65.2236C17.6871 61.2628 16.9306 57.1512 16.8169 53.0018C16.6276 46.589 19.3533 43.4959 22.7985 37.5357Z" fill="#282828"/>
<path d="M21.8899 37.0074C22.3821 36.1401 22.9876 35.0459 23.5555 33.9521C25.4484 30.5193 27.2276 27.2375 30.067 24.5591C33.8831 20.9787 38.4657 18.3087 43.4688 16.7507C48.4659 15.204 53.8416 14.7126 59.1041 15.4305C60.5427 15.6569 62.057 15.7698 63.5713 15.8834C68.1143 16.2985 72.6192 16.6757 76.9348 19.1651C81.1752 21.6174 84.1278 25.1253 87.0431 28.5581L87.3837 28.9732L87.4593 29.0107C89.5048 31.4251 91.1315 33.3866 92.6081 36.1779C93.138 37.1588 93.7445 38.5166 94.2737 39.9126C94.6903 41.0064 95.0309 42.1381 95.2202 43.119C95.2961 43.6091 95.4474 44.326 95.6747 45.1571C96.1293 47.1953 96.7348 49.7592 96.6215 50.9662C96.5082 52.1733 96.3942 53.3806 96.2429 54.5498C96.0156 56.3615 95.8263 58.1334 95.7884 59.8312C95.7507 61.0383 95.7127 62.1321 95.7127 63.1884C95.7127 68.3187 95.6747 72.2038 92.5704 77.636C91.1698 80.0879 89.012 81.7854 86.9675 83.4075C86.1346 84.0869 85.2639 84.7663 84.5447 85.4457C82.6898 87.1432 80.3803 88.5767 78.2602 89.8591C77.7303 90.161 77.2381 90.4628 76.8219 90.6889C71.938 93.7446 66.2594 93.7067 60.543 93.7067H57.6657C56.2271 93.7446 54.7128 93.8578 53.1605 93.971C49.9426 94.1975 46.649 94.4611 43.4691 93.8199C41.122 93.3295 39.0018 92.0849 36.8456 90.8022C36.3534 90.5003 35.8612 90.2363 35.5206 90.0102C34.0063 89.1425 32.6433 87.7456 31.3939 86.4266C30.6748 85.7097 29.9933 84.9931 29.3484 84.4273C28.6293 83.786 27.9098 83.3331 27.2283 82.842C25.9412 82.0116 24.7669 81.1801 23.6685 79.8223C20.7162 76.0123 19.5048 71.7884 18.2934 67.3362C18.1418 66.8082 17.9905 66.2799 17.8012 65.5245C17.1953 63.4507 16.7031 61.3388 16.3632 59.1881C16.0226 57.1499 15.8333 55.0765 15.7573 53.0393C15.606 47.4189 17.5369 44.2503 20.2246 39.7991C20.7548 38.9314 21.3227 37.9874 21.8905 37.0074H21.8899ZM25.4484 34.9693C24.9185 35.9123 24.4263 36.8554 23.7448 38.0624C23.1387 39.0433 22.5709 39.9864 22.0412 40.8916C19.5412 45.0035 17.7255 47.9442 17.8768 52.9626C17.9534 54.9335 18.143 56.8984 18.4447 58.8477C18.7852 60.9114 19.253 62.9523 19.8454 64.9587C19.959 65.4116 20.1483 66.091 20.3376 66.7703C21.5113 70.9952 22.647 75.0314 25.3727 78.502C26.2435 79.6344 27.3036 80.3503 28.4013 81.1047C29.1585 81.5952 29.9536 82.1232 30.7485 82.8022C31.4679 83.4434 32.1871 84.1979 32.9063 84.9523C34.08 86.1972 35.3294 87.4796 36.5787 88.1966C37.1086 88.4984 37.5252 88.7624 37.9424 88.9885C39.9109 90.158 41.8798 91.3276 43.886 91.7423C46.8013 92.3081 49.9056 92.082 53.0095 91.8555C54.5238 91.7423 56.0381 91.6291 57.6281 91.5915H60.5434C65.9568 91.5915 71.3328 91.5915 75.7241 88.9132C76.2163 88.5738 76.6706 88.3098 77.1628 88.0073C79.2082 86.8003 81.4407 85.4421 83.1064 83.8954C83.9015 83.141 84.7723 82.4622 85.6428 81.7453C87.5356 80.2364 89.5045 78.69 90.7159 76.5774C93.5552 71.6357 93.5929 67.9767 93.5929 63.1861C93.5929 62.0923 93.6309 60.9606 93.6309 59.7911C93.7065 57.905 93.8958 56.1321 94.1231 54.3214C94.2744 53.1891 94.388 52.0202 94.5016 50.8132C94.5773 49.9073 94.0094 47.4936 93.5925 45.6453C93.3653 44.7777 93.2143 43.9854 93.1007 43.4952C92.949 42.5894 92.6461 41.6091 92.3055 40.6282C91.8476 39.4398 91.3162 38.2808 90.7146 37.1579C89.3896 34.5927 87.7996 32.7066 85.8307 30.4054L85.7551 30.33L85.4145 29.9153C82.6135 26.6339 79.7732 23.2389 75.8751 21.0134C71.9757 18.7488 67.6977 18.3728 63.382 18.0331C61.9054 17.8824 60.4275 17.7692 58.8391 17.543C53.8796 16.8636 48.8065 17.3166 44.1123 18.7876C39.4236 20.2344 35.1259 22.7233 31.5436 26.0667C28.9692 28.5578 27.2276 31.6875 25.4484 34.9693Z" fill="#2D2D2D"/>
<path fill-rule="evenodd" clip-rule="evenodd" d="M28.8184 47.2303C29.9917 43.5713 30.7112 39.9868 32.7924 36.97C37.2217 30.5572 44.4903 26.5585 52.2132 26.0306C56.7564 25.6909 61.1094 24.4453 65.653 25.9173C69.1735 27.0496 71.9751 29.2745 74.7008 31.387C76.5937 32.8581 78.108 34.0276 79.5843 35.8004C80.4934 36.8946 81.8181 38.7444 82.4617 40.2896C82.9162 41.4219 84.5438 44.5519 84.6951 45.6836C84.9981 48.0601 85.0737 50.2481 85.4903 52.436C86.3994 57.4531 87.6481 60.4709 85.9448 65.6766C85.074 68.43 82.8406 70.3919 81.3642 72.5028C80.0769 74.3145 78.1463 75.9732 76.594 77.4821C73.1112 80.8017 68.0761 81.4429 63.2682 82.537C59.861 83.2915 56.4538 84.7625 52.9706 84.8016C50.9252 84.8392 48.8823 83.9718 46.7621 83.2928C44.9072 82.6891 43.09 81.067 41.462 80.1618C39.6828 79.2187 38.1685 78.9922 36.6542 77.7477C33.5876 75.22 32.0733 71.825 30.2184 68.3547C28.7797 65.6009 27.5683 62.6588 26.8112 59.6032C25.6748 54.9255 27.1898 52.172 28.8177 47.2303H28.8184Z" fill="#282828"/>
<path d="M27.7959 46.9285C28.0612 46.0986 28.3261 45.2688 28.5531 44.4374C29.3862 41.5704 30.219 38.8544 31.9226 36.3647C34.1953 33.0451 37.2227 30.367 40.6675 28.4061C44.1893 26.4247 48.1056 25.2398 52.1385 24.9354C53.2365 24.8601 54.3723 24.7468 55.47 24.5961C58.9528 24.181 62.36 23.7284 65.9945 24.9354C69.553 26.0678 72.3167 28.2175 75.0047 30.2922L75.3453 30.5562L75.4209 30.5938C77.3138 32.0651 78.8661 33.2722 80.3804 35.1204C80.9103 35.7619 81.5918 36.6671 82.2353 37.6115C82.7125 38.3379 83.1183 39.1086 83.447 39.9127C83.5983 40.252 83.8256 40.7425 84.0905 41.3459C84.7724 42.7794 85.6425 44.5901 85.7561 45.571C85.8698 46.514 85.9454 47.4192 86.0211 48.2885C86.1727 49.6088 86.2863 50.9291 86.5133 52.2115C86.6649 53.0792 86.8542 53.909 87.0055 54.7026C87.8383 58.5123 88.4442 61.4547 86.9675 66.0192C86.2857 68.0939 84.9613 69.716 83.712 71.2624C83.1818 71.8661 82.6519 72.5073 82.2353 73.111C81.1376 74.6574 79.6233 76.0909 78.2226 77.3737C77.9197 77.6752 77.6167 77.977 77.3135 78.241C74.1336 81.2966 69.8936 82.2019 65.6156 83.1074C64.8964 83.2581 64.1769 83.4092 63.4954 83.5603C62.4357 83.7868 61.3376 84.1261 60.2399 84.428C57.8548 85.1446 55.4697 85.8236 52.9709 85.8615C51.116 85.899 49.3368 85.2956 47.5196 84.6541C47.103 84.5412 46.6868 84.3901 46.4218 84.3147C45.1345 83.8618 43.8851 83.0323 42.7494 82.24C42.1058 81.825 41.5003 81.4102 40.9312 81.1077C40.3253 80.7683 39.7195 80.5419 39.1129 80.2779C38.0529 79.8628 37.0308 79.4481 35.9707 78.5804C33.1314 76.2038 31.5791 73.2239 29.9515 70.1305C29.6862 69.6025 29.4213 69.0745 29.3076 68.848C28.5128 67.4145 27.8313 65.904 27.2254 64.3592C26.6551 62.8933 26.1748 61.3942 25.7871 59.8701C24.7647 55.6453 25.7111 53.0048 26.9985 49.2326C27.2634 48.5156 27.5284 47.7237 27.7933 46.9314L27.7959 46.9285ZM30.5976 45.0048C30.3703 45.8346 30.1054 46.6645 29.8024 47.5697C29.5375 48.3998 29.2725 49.1918 29.0076 49.9087C27.8339 53.3412 26.9621 55.7556 27.8712 59.3767C28.2118 60.8103 28.666 62.2059 29.1962 63.6019C29.7641 65.0351 30.4453 66.4686 31.1648 67.8642C31.5054 68.4679 31.6947 68.8073 31.8466 69.147C33.3609 72.0515 34.8372 74.8428 37.336 76.9175C38.1308 77.5969 39.0016 77.9363 39.91 78.3135C40.5539 78.5775 41.1974 78.8415 41.9555 79.2566C42.6373 79.5959 43.2805 80.0485 43.9241 80.5011C44.9841 81.218 46.0819 81.9725 47.0663 82.2743C47.5585 82.4251 47.8611 82.5383 48.2027 82.6515C49.8683 83.2174 51.4583 83.7454 52.9349 83.7454C55.1684 83.7075 57.4022 83.066 59.6736 82.3866C60.7714 82.0851 61.9071 81.7454 63.0428 81.4807L65.2007 81.0278C69.1757 80.198 73.1131 79.3678 75.8768 76.7273C76.1794 76.4258 76.4823 76.1239 76.7859 75.8599C78.1109 74.6151 79.5116 73.2948 80.496 71.8991C80.9882 71.2197 81.5181 70.5789 82.048 69.8998C83.1844 68.5041 84.3954 67.0706 84.9253 65.3731C86.2503 61.3369 85.6824 58.6585 84.9253 55.15C84.774 54.3577 84.6224 53.5279 84.4331 52.6227C84.1681 51.227 84.0545 49.8689 83.9032 48.4733C83.8275 47.6056 83.7516 46.7004 83.6383 45.8327C83.5623 45.1915 82.7675 43.5315 82.1616 42.2113C81.8587 41.6079 81.6317 41.0421 81.4798 40.7024C81.2148 40.099 80.8363 39.42 80.42 38.7787C79.8898 37.9111 79.2463 37.0812 78.7541 36.4776C77.3534 34.7801 75.9148 33.6484 74.0975 32.2903L74.0592 32.2547L73.7183 31.9907C71.1442 29.9914 68.5319 27.9542 65.352 26.9358C62.172 25.9173 58.9918 26.2945 55.7359 26.7093C54.5995 26.8222 53.4632 26.9733 52.2911 27.0865C48.565 27.3472 44.9436 28.4296 41.6886 30.2554C38.5464 32.0671 35.7447 34.518 33.6625 37.5733C32.1482 39.7237 31.3898 42.3264 30.5963 45.0048H30.5976Z" fill="#2D2D2D"/>
<path fill-rule="evenodd" clip-rule="evenodd" d="M36.9581 44.7783C38.4344 42.251 39.5321 39.6858 41.5766 37.7619C45.8923 33.6881 51.9495 31.8774 57.7798 32.6694C61.2246 33.1598 64.6698 32.9337 67.8497 34.7441C70.2728 36.1401 72.0141 38.2523 73.7177 40.2516C74.8541 41.6473 75.7999 42.7427 76.633 44.2878C77.1249 45.2688 77.8444 46.853 78.0713 48.1354C78.2229 49.0413 78.9421 51.6061 78.8665 52.4735C78.7152 54.3221 78.4119 55.9442 78.3742 57.6417C78.2606 61.5271 78.7152 63.979 76.595 67.6002C75.5349 69.4863 73.5664 70.5804 72.0901 71.9382C70.8784 73.1077 69.1748 74.0508 67.7741 74.9184C64.6318 76.8421 60.8084 76.5037 57.0226 76.5402C54.3346 76.5781 51.6089 77.1439 48.9965 76.6159C47.4822 76.3141 46.0816 75.3332 44.6053 74.5034C43.3179 73.7868 42.2202 72.2779 41.1224 71.3348C39.986 70.3539 38.8886 69.9389 37.9406 68.7697C36.0857 66.3931 35.4798 63.6393 34.647 60.7727C34.0035 58.4715 33.5869 56.0949 33.5106 53.72C33.397 50.0232 34.9869 48.2128 36.9558 44.7799L36.9581 44.7783Z" fill="#282828"/>
<path d="M36.3516 44.439C36.6165 43.9486 36.9951 43.3067 37.336 42.7037C38.3958 40.7043 39.4182 38.8182 41.0838 37.234C43.3173 35.1593 45.9673 33.6504 48.8437 32.7452C51.72 31.84 54.8252 31.5757 57.8915 31.9907C58.6867 32.1037 59.5954 32.1794 60.4659 32.2547C63.0783 32.4812 65.6903 32.7077 68.1891 34.1408C70.6498 35.5365 72.3534 37.5734 74.019 39.5727L74.2463 39.7991L74.2839 39.8367C75.4577 41.2327 76.4041 42.3643 77.2369 43.9861C77.5398 44.5519 77.9187 45.3064 78.2213 46.1365C78.4486 46.7777 78.6759 47.4189 78.7512 48.0226C78.7892 48.2866 78.9028 48.702 79.0162 49.1549C79.2814 50.3241 79.622 51.833 79.584 52.5499C79.5084 53.2293 79.4327 53.9456 79.3567 54.6246C79.2431 55.6431 79.1295 56.6628 79.0918 57.6424C79.0538 58.3218 79.0538 58.9627 79.0538 59.566C79.0538 62.5463 79.0538 64.8096 77.2356 67.9406C76.4028 69.3738 75.1534 70.3547 73.9801 71.2977C73.4878 71.675 72.9956 72.09 72.5791 72.4673C71.5193 73.4478 70.1943 74.279 68.9449 74.9946C68.604 75.221 68.2254 75.4475 68.1121 75.485V75.5225C65.3127 77.256 62.0192 77.256 58.6876 77.256H57.022C56.2269 77.256 55.3561 77.3313 54.4476 77.4067C52.5924 77.5199 50.6995 77.6707 48.8446 77.2935C47.481 77.0295 46.2326 76.3129 44.9832 75.5585L44.2261 75.1055C43.3553 74.6151 42.5601 73.7853 41.841 73.0308C41.4244 72.6157 41.0458 72.2007 40.6672 71.8613C40.251 71.5219 39.8344 71.2576 39.4559 70.9555C38.6987 70.465 38.0172 70.0124 37.4104 69.2201C35.6688 66.9946 34.9873 64.5427 34.2681 61.9775C34.1925 61.6757 34.1168 61.4117 33.9652 60.9591C33.6243 59.7443 33.3589 58.5096 33.1704 57.2623C32.9811 56.0928 32.8295 54.9232 32.7918 53.7162C32.7158 50.4723 33.8139 48.6237 35.4038 46.0586C35.7068 45.5306 36.0097 45.0026 36.3503 44.4368L36.3516 44.439ZM38.5851 43.3827C38.2825 43.9107 37.9795 44.439 37.563 45.1556C37.2224 45.7215 36.9195 46.2494 36.6165 46.7777C35.1779 49.1543 34.1558 50.8139 34.2314 53.6809C34.2744 54.8044 34.3755 55.925 34.5344 57.0381C34.7616 58.2459 35.0267 59.4153 35.3295 60.5463C35.4051 60.8103 35.5188 61.2257 35.6324 61.6026C36.3142 64.0545 36.9574 66.3554 38.5094 68.3547C39.0016 68.9959 39.6075 69.3731 40.251 69.8261C41.2161 70.4502 42.0944 71.1985 42.863 72.0515C43.5449 72.7681 44.2267 73.485 44.9452 73.8998C45.0968 73.9755 45.3998 74.1641 45.7024 74.3527H45.7404C46.8767 75.0321 47.9738 75.7115 49.1096 75.8991C50.7755 76.2388 52.5924 76.1256 54.372 75.9745C55.2424 75.937 56.1132 75.8616 57.022 75.8237H58.6876C61.7919 75.8237 64.8965 75.8616 67.3949 74.3149C67.8115 74.0509 68.0007 73.9376 68.2277 73.7869C69.4014 73.07 70.6884 72.3155 71.6349 71.4479C72.0894 70.9949 72.5813 70.618 73.1115 70.2033C74.1716 69.3356 75.3073 68.4301 75.9885 67.2609C77.6165 64.3939 77.6165 62.3192 77.6545 59.5654V57.6039C77.6921 56.5101 77.8058 55.4913 77.9574 54.4354C78.033 53.7939 78.1087 53.1526 78.1467 52.4361C78.2223 51.9077 77.8814 50.5499 77.6545 49.492C77.5028 48.9641 77.4272 48.549 77.3515 48.2471C77.2759 47.7192 77.0866 47.1533 76.897 46.625C76.6532 45.9335 76.349 45.2646 75.9879 44.626C75.2307 43.1547 74.3223 42.0609 73.1865 40.7406L73.1485 40.7027L72.9593 40.4763C71.3683 38.5902 69.7037 36.6284 67.4699 35.3459C65.2364 34.0635 62.8137 33.8749 60.3149 33.6484C59.4821 33.5731 58.6113 33.4977 57.7025 33.3845C54.8707 32.9771 51.9828 33.2222 49.2609 34.101C46.6108 34.9309 44.1121 36.3268 42.0679 38.2883C40.5913 39.684 39.6072 41.4947 38.5847 43.3808L38.5851 43.3827Z" fill="#2D2D2D"/>
<path fill-rule="evenodd" clip-rule="evenodd" d="M45.362 44.0993C46.8763 42.6658 48.1257 41.1948 49.905 40.3271C53.6527 38.4789 58.082 38.5154 61.8301 40.2518C64.0259 41.2702 66.373 41.837 68.1146 43.7221C69.4783 45.1556 70.1968 46.9285 70.916 48.626C71.4082 49.7955 71.8251 50.7386 72.0524 51.9456C72.166 52.7 72.3173 53.9071 72.2037 54.7748C72.128 55.416 72.0903 57.3021 71.8251 57.8679C71.3705 59.0753 70.841 60.0937 70.4614 61.2254C69.5523 63.8281 69.3634 65.5255 67.2055 67.5249C66.0691 68.5812 64.5178 68.9205 63.2685 69.5242C62.2084 70.0522 60.8454 70.3162 59.7476 70.618C57.2476 71.2592 54.7505 70.2408 52.2151 69.4857C50.3968 68.9577 48.4293 68.7691 46.8017 67.9005C45.8552 67.3725 45.0981 66.4295 44.3016 65.5618C43.5825 64.8073 43.1653 63.5624 42.636 62.7326C42.0682 61.8268 41.4243 61.337 41.0451 60.3561C40.2879 58.3567 40.4396 56.3953 40.4772 54.3205C40.5152 52.623 40.7425 50.9631 41.1967 49.3413C41.8785 46.8502 43.3166 45.9838 45.3611 44.0977L45.362 44.0993Z" fill="#282828"/>
<path d="M44.8704 43.5713C45.249 43.2316 45.5522 42.9301 45.8925 42.5904C47.0289 41.4966 48.1263 40.4025 49.6026 39.6859C51.5369 38.7458 53.6601 38.2557 55.8121 38.2524C57.9703 38.2148 60.1661 38.7053 62.1346 39.6111C62.6645 39.8751 63.2324 40.1016 63.8002 40.3277C65.5418 41.0071 67.2454 41.7234 68.6461 43.2323C70.0097 44.7036 70.7662 46.4386 71.4854 48.1361L71.561 48.3247L71.599 48.3626C72.0912 49.5696 72.5081 50.5127 72.7354 51.7954C72.8111 52.2484 72.9247 52.8514 72.9247 53.4551C72.9624 53.9322 72.9624 54.4115 72.9247 54.8886C72.8867 55.0393 72.8867 55.3415 72.849 55.7184C72.7731 56.5482 72.6974 57.6424 72.5081 58.1325C72.3188 58.6226 72.0919 59.0759 71.9403 59.4913C71.6373 60.1707 71.3347 60.8115 71.1075 61.4527C70.9562 61.9057 70.8425 62.3204 70.6909 62.7355C70.0854 64.7348 69.5932 66.2812 67.6623 68.0541C66.7918 68.8843 65.7317 69.299 64.7473 69.6762C64.3311 69.8273 63.9145 69.9781 63.5739 70.1667C62.6275 70.6196 61.5674 70.8833 60.583 71.1476C60.3515 71.1768 60.1233 71.2272 59.9011 71.2983C57.592 71.902 55.3582 71.223 53.1247 70.5061C52.7462 70.3931 52.4053 70.2796 51.9884 70.1667C51.4582 70.0159 50.852 69.8648 50.2468 69.7516C48.9597 69.4501 47.6724 69.1482 46.461 68.507C45.5902 68.0166 44.909 67.2621 44.1883 66.5077L43.772 66.0548C43.2798 65.4889 42.9012 64.772 42.5603 64.093C42.371 63.7536 42.2197 63.3764 42.0304 63.1124C41.8411 62.8105 41.6139 62.5466 41.4246 62.2826C41.0083 61.7921 40.6298 61.3017 40.3648 60.6226C39.6453 58.7365 39.721 56.9258 39.759 55.0397C39.759 54.7757 39.797 54.5492 39.797 54.2852C39.797 53.4176 39.8726 52.5124 39.9862 51.6447C40.0996 50.8149 40.2888 49.985 40.5161 49.1536C41.1596 46.889 42.2954 45.8715 43.8853 44.4383C44.2311 44.1695 44.56 43.88 44.8704 43.5713ZM46.8769 43.6088C46.536 43.9485 46.1951 44.2882 45.8548 44.5897C45.4763 44.929 45.1354 45.231 44.8324 45.4956C43.4317 46.7783 42.4097 47.6835 41.8798 49.5321C41.6525 50.2866 41.5012 51.041 41.3876 51.833C41.2739 52.6628 41.2359 53.4929 41.1983 54.3241V55.0785C41.1226 56.8135 41.0846 58.511 41.6905 60.0956C41.8798 60.6236 42.1824 61.0014 42.5233 61.378C42.7506 61.6799 43.0155 61.9817 43.2425 62.3589C43.4697 62.6983 43.659 63.0755 43.8483 63.4527C44.1512 64.0564 44.4538 64.6976 44.8324 65.0748C45.0597 65.3767 45.1733 65.4521 45.249 65.5653C45.8548 66.2447 46.4604 66.8856 47.1419 67.2628C48.164 67.8286 49.3753 68.0926 50.587 68.3566L52.4052 68.8095C52.7838 68.9228 53.1624 69.036 53.5416 69.1867C55.5871 69.7904 57.6303 70.4316 59.5612 69.9412C59.9018 69.8283 60.0534 69.7904 60.2047 69.7526H60.2427C61.1518 69.5261 62.1732 69.2997 62.9684 68.8852C63.385 68.6966 63.8012 68.5455 64.2178 68.3569C65.1269 68.0176 66.036 67.6775 66.7178 67.0367C68.3457 65.4902 68.8 64.1321 69.3678 62.3214C69.4815 61.9066 69.6331 61.4537 69.7844 61.0011C70.0117 60.2845 70.3143 59.6055 70.6172 58.9264C70.8065 58.4735 71.0338 58.0587 71.1851 57.6061C71.2987 57.3421 71.3743 56.3612 71.45 55.6068C71.4532 55.3034 71.4786 55.0007 71.526 54.7009C71.5637 54.3244 71.5637 53.9451 71.526 53.5686C71.4909 53.0626 71.4277 52.5588 71.3367 52.0598C71.1474 50.9274 70.7688 50.0216 70.2766 48.9288V48.8909L70.201 48.7023C69.5191 47.1171 68.8373 45.4959 67.6266 44.2135C66.4158 42.9311 64.8629 42.2895 63.235 41.6483C62.6671 41.3843 62.0986 41.1579 61.5314 40.8939C59.7521 40.0641 57.7836 39.649 55.8147 39.649C53.8842 39.649 51.9913 40.1019 50.212 40.9693C48.9627 41.573 47.9393 42.5914 46.8805 43.6098L46.8769 43.6088Z" fill="#2D2D2D"/>
<path fill-rule="evenodd" clip-rule="evenodd" d="M47.8979 48.6246C48.7687 47.5308 49.4888 46.4367 50.6252 45.6447C52.9723 44.0595 55.9632 43.6832 58.6509 44.4752C60.2419 44.9656 61.8692 45.1164 63.2319 46.2105C64.2919 47.0782 64.9355 48.172 65.579 49.2658C66.0335 50.0203 66.4121 50.5861 66.677 51.4163C66.8283 51.9064 67.0556 52.6987 67.0556 53.3024C67.0556 53.7553 67.2069 55.0374 67.0933 55.4525C66.866 56.2823 66.6387 57.0377 66.4877 57.829C66.1092 59.6407 66.1468 60.8468 64.8968 62.3932C64.215 63.2233 63.1932 63.6006 62.4361 64.1285C61.7542 64.5815 60.8838 64.883 60.1266 65.1848C58.5357 65.8642 56.7194 65.4113 54.9402 65.147C53.6908 64.9584 52.3278 64.9962 51.1544 64.5811C50.4349 64.3171 49.8671 63.7513 49.2235 63.2224C48.6937 62.8073 48.2771 62.015 47.8229 61.487C47.3683 60.9212 46.8764 60.6572 46.5355 60.016C45.8163 58.7711 45.7407 57.413 45.5891 55.9795C45.4378 54.8528 45.4378 53.7111 45.5891 52.5845C45.8163 50.8495 46.6871 50.0934 47.8985 48.6237L47.8979 48.6246Z" fill="#282828"/>
<path d="M47.3309 48.1734C47.5582 47.9469 47.7475 47.6829 47.9368 47.4568C48.6186 46.5509 49.2618 45.7214 50.2095 45.0802C51.4586 44.2125 52.8972 43.6846 54.3739 43.4581C55.8706 43.2687 57.3905 43.3841 58.8411 43.7975C59.2197 43.9107 59.6359 44.0239 60.0145 44.1372C61.3019 44.439 62.5509 44.7405 63.6867 45.6836C64.7847 46.5512 65.4662 47.6829 66.1097 48.777L66.1854 48.8899L66.2234 48.9278C66.6779 49.6822 67.0562 50.2866 67.3211 51.1924C67.4587 51.5592 67.5602 51.9384 67.624 52.3247C67.6997 52.6641 67.7377 53.0041 67.7753 53.3056V53.8715C67.8133 54.4373 67.889 55.2302 67.7753 55.6065C67.6997 55.9462 67.624 56.2859 67.5104 56.5874C67.3968 57.0403 67.2455 57.4932 67.1698 57.9462C67.0938 58.2859 67.0562 58.5877 67.0182 58.852C66.7909 60.323 66.602 61.4172 65.4273 62.8507C64.8974 63.5301 64.2159 63.9066 63.5344 64.2839C63.2694 64.4349 63.0422 64.5482 62.8152 64.6989C62.2094 65.114 61.4902 65.4155 60.8464 65.6798C60.7013 65.7109 60.5613 65.7616 60.4301 65.8306C58.8392 66.51 57.2482 66.2457 55.6219 65.9814C55.3947 65.9438 55.2057 65.906 54.8648 65.8306C54.4862 65.7927 54.07 65.7552 53.6534 65.7174C52.7443 65.642 51.7985 65.5666 50.8897 65.2269C50.2079 64.9629 49.6783 64.5103 49.1105 64.0577C48.9592 63.9445 48.8075 63.8313 48.7699 63.7937C48.3533 63.454 48.0504 63.0014 47.7478 62.5488C47.5962 62.3224 47.4449 62.1338 47.2932 61.9452C47.1487 61.7634 46.9837 61.5988 46.8013 61.4547C46.4984 61.1532 46.1955 60.8513 45.9306 60.3987C45.2111 59.1538 45.0977 57.9077 44.9461 56.5887C44.9461 56.4755 44.9085 56.3247 44.8705 56.0982C44.8325 55.4945 44.7948 54.8912 44.7568 54.25C44.757 53.6563 44.7951 53.0633 44.8708 52.4745C45.0981 50.8149 45.7799 50.0226 46.7637 48.8534C46.953 48.6269 47.1802 48.4005 47.3315 48.174L47.3309 48.1734ZM49.0345 48.3241C48.8452 48.5506 48.6559 48.8146 48.4286 49.0786C48.2014 49.3804 48.0124 49.569 47.8608 49.7955C47.028 50.7385 46.4601 51.4176 46.2698 52.6622C46.2322 53.1905 46.1942 53.7184 46.1942 54.2474C46.1957 54.8025 46.2336 55.3569 46.3078 55.907L46.3455 56.435C46.4971 57.6045 46.6108 58.6996 47.1406 59.6792C47.3299 59.9811 47.5572 60.2075 47.7842 60.4337L48.39 61.0374C48.5793 61.226 48.7306 61.4903 48.9199 61.754C49.1472 62.0936 49.4121 62.4709 49.677 62.697C49.8663 62.8481 49.942 62.9235 50.018 62.961C50.4725 63.3761 50.9271 63.7533 51.3816 63.904C52.1011 64.1684 52.9339 64.2437 53.7667 64.3191C54.1833 64.357 54.5995 64.3945 55.0537 64.4324C55.2054 64.4699 55.546 64.5077 55.8489 64.5831C57.2495 64.8096 58.6882 65.036 59.8619 64.5456C60.0512 64.4699 60.1648 64.3945 60.3165 64.357C60.8843 64.1305 61.5279 63.8665 62.0201 63.5268C62.284 63.3414 62.5625 63.1775 62.8529 63.0367C63.3831 62.7349 63.9509 62.433 64.3295 61.9426C65.2386 60.8103 65.4273 59.8679 65.6165 58.623C65.6545 58.3214 65.7302 58.0196 65.7678 57.6799C65.8815 57.1895 65.9951 56.6993 66.1464 56.2089C66.2601 55.8692 66.3357 55.5677 66.4117 55.2658C66.4494 55.0772 66.4117 54.436 66.3737 53.9455C66.3737 53.7191 66.3357 53.4926 66.3357 53.3043C66.3357 53.116 66.2981 52.8514 66.2601 52.5874C66.1844 52.2481 66.0708 51.8708 65.9951 51.6068C65.7678 50.9275 65.4273 50.3619 64.973 49.645L64.8974 49.4943C64.2915 48.5134 63.6857 47.4949 62.7772 46.7784C61.9064 46.0614 60.8087 45.7599 59.673 45.4956C59.2944 45.3827 58.8778 45.307 58.4616 45.1562C57.1963 44.7877 55.8658 44.6976 54.5622 44.8922C53.3128 45.043 52.0621 45.5335 51.0034 46.251C50.2462 46.7793 49.6783 47.5338 49.0348 48.3257L49.0345 48.3241Z" fill="#2D2D2D"/>
<path fill-rule="evenodd" clip-rule="evenodd" d="M50.0558 53.0394C50.3587 52.2095 50.5103 51.4176 51.0022 50.7385C51.5111 50.0274 52.1727 49.4383 52.9389 49.0141C53.7052 48.5899 54.5567 48.3414 55.4315 48.2866C56.4539 48.2487 57.438 47.9847 58.4604 48.3241C59.2552 48.5884 59.8611 49.0785 60.5059 49.569C60.9225 49.9087 61.2631 50.1727 61.566 50.5874C61.7933 50.8517 62.0959 51.2668 62.2095 51.6062C62.3231 51.8702 62.7017 52.5868 62.7017 52.8508C62.7774 53.3791 62.7774 53.8695 62.891 54.3596C63.0803 55.4919 63.3456 56.1713 62.9667 57.3774C62.7394 57.9811 62.2475 58.3962 61.9066 58.8866C61.6036 59.3014 61.1494 59.6786 60.8088 60.0189C60.0137 60.7355 58.878 60.8863 57.7802 61.1127C56.9851 61.2635 56.2279 61.6032 55.4328 61.6032C54.9782 61.6032 54.5237 61.4146 54.0321 61.226C53.6159 61.1127 53.1993 60.7355 52.8587 60.509C52.4422 60.3204 52.1016 60.2451 51.7607 59.9811C51.0788 59.3774 50.7386 58.6223 50.322 57.831C50.0194 57.1894 49.7541 56.5107 49.6028 55.8316C49.3379 54.7754 49.6785 54.1717 50.0574 53.04L50.0558 53.0394Z" fill="#282828"/>
<path d="M50.3591 53.115C50.3971 52.9264 50.4727 52.7753 50.5104 52.6246C50.6997 52.0209 50.8513 51.4551 51.2299 50.9271C51.7155 50.2518 52.3501 49.6966 53.0848 49.304C53.8043 48.8889 54.6371 48.6628 55.5079 48.5874C55.6972 48.5874 55.9241 48.5496 56.1514 48.5496C56.8706 48.4363 57.5901 48.361 58.3472 48.6249C59.1044 48.8889 59.6722 49.3419 60.2401 49.7573L60.3157 49.8326C60.6943 50.1345 61.0349 50.3985 61.3378 50.7757C61.4515 50.9268 61.6028 51.1154 61.7164 51.304C61.8198 51.4721 61.9084 51.6487 61.9814 51.832C61.9814 51.8698 62.0573 51.9831 62.095 52.096C62.2466 52.3978 62.3979 52.7753 62.4359 53.0018C62.466 53.1889 62.4786 53.3783 62.4736 53.5676C62.5116 53.8316 62.5492 54.0956 62.5872 54.3221C62.5872 54.5107 62.6252 54.6615 62.6629 54.8125C62.8145 55.6424 62.9658 56.2457 62.6252 57.2266C62.4736 57.6795 62.1706 58.0189 61.9057 58.3589C61.8059 58.4626 61.7171 58.5764 61.6408 58.6983C61.3758 59.038 61.0729 59.302 60.77 59.566L60.6174 59.7536C59.8979 60.3951 59.0264 60.5838 58.1173 60.7724C57.966 60.7724 57.7767 60.8099 57.7008 60.8477C57.5118 60.8853 57.2845 60.961 57.0573 60.9985C56.565 61.1496 56.0731 61.2625 55.5429 61.3003C55.1267 61.3003 54.7481 61.1496 54.3696 60.9985C54.2936 60.9985 54.1803 60.961 54.1423 60.961C53.8773 60.8477 53.6124 60.6591 53.3471 60.5081C53.2528 60.4072 53.1362 60.3297 53.0065 60.2816C52.9309 60.2062 52.8173 60.1684 52.666 60.1305C52.4387 60.0176 52.2494 59.9419 51.9841 59.7158C51.3783 59.2253 51.075 58.5835 50.7348 57.9426C50.69 57.8577 50.652 57.7694 50.6211 57.6786C50.4698 57.3767 50.3182 57.0752 50.2049 56.7727C50.0912 56.433 49.9776 56.1315 49.902 55.8297C49.7127 54.9238 49.902 54.3583 50.2049 53.5651C50.2437 53.4105 50.2943 53.2591 50.3562 53.1121L50.3591 53.115ZM51.4192 52.8886C51.3435 53.0393 51.3055 53.2279 51.2299 53.4166C51.1919 53.5676 51.1163 53.7184 51.0783 53.8695C50.851 54.5107 50.6997 54.9633 50.851 55.6045C50.8863 55.8906 50.9629 56.17 51.0783 56.4343C51.1919 56.6986 51.3055 57.0002 51.4569 57.2645L51.5705 57.5285C51.8734 58.0943 52.1384 58.6223 52.5926 58.9995C52.7356 59.1014 52.8877 59.1899 53.0471 59.2638C53.1897 59.3179 53.3287 59.3808 53.4634 59.4521C53.615 59.5278 53.7663 59.641 53.8799 59.7164C54.0692 59.8672 54.2962 60.0182 54.4478 60.0558C54.5614 60.0936 54.6371 60.1312 54.6751 60.1312C54.978 60.2444 55.2809 60.3576 55.5459 60.3576C55.9624 60.3576 56.3787 60.2444 56.8332 60.0936C57.0605 60.0558 57.2878 59.9804 57.5151 59.9425C57.704 59.8672 57.8177 59.8672 57.9313 59.8296C58.6884 59.6786 59.4456 59.5278 59.9768 59.0752C60.0524 58.9995 60.0901 58.9241 60.1661 58.8866C60.3933 58.6601 60.6959 58.3961 60.8479 58.1697C60.9522 58.0239 61.0661 57.8853 61.1888 57.7546C61.4161 57.4906 61.6434 57.2266 61.7187 56.9248C61.9836 56.1703 61.8703 55.6799 61.7567 55.0011C61.7187 54.8501 61.681 54.6993 61.643 54.5107C61.605 54.2088 61.5674 53.9449 61.5674 53.643C61.5294 53.4544 61.5294 53.3037 61.4917 53.115C61.4917 53.0393 61.3401 52.7378 61.2265 52.4735C61.195 52.3708 61.1571 52.2701 61.1132 52.172C61.0752 52.0588 60.9995 51.9455 60.9239 51.7948C60.8102 51.6437 60.6966 51.4929 60.6209 51.3797C60.356 51.0403 60.0531 50.8517 59.7118 50.5499L59.6362 50.512C59.144 50.1348 58.6518 49.7201 58.0839 49.5314C57.4784 49.3428 56.8725 49.3804 56.2657 49.4557C56.0384 49.4936 55.8111 49.5314 55.5462 49.5314C54.827 49.569 54.1455 49.7954 53.5397 50.1348C52.9341 50.4366 52.4033 50.9271 51.9877 51.4936C51.7228 51.8708 51.5711 52.3612 51.4198 52.8892L51.4192 52.8886Z" fill="#2D2D2D"/>
<path fill-rule="evenodd" clip-rule="evenodd" d="M43.0903 7.65967L38.4717 9.09317L42.2951 18.2976L42.9386 23.6162L51.5326 40.4025L45.7779 21.9565L45.6267 17.4299L43.0903 7.65967Z" fill="#2D2D2D"/>
<path fill-rule="evenodd" clip-rule="evenodd" d="M86.3623 72.2022L72.9229 65.1107L84.9237 74.8428L98.4768 81.4441L86.3623 72.2022Z" fill="#2D2D2D"/>
<path fill-rule="evenodd" clip-rule="evenodd" d="M23.518 77.0308L33.1717 69.9768L22.1926 74.6921L11.1006 82.7645L23.518 77.0308Z" fill="#2D2D2D"/>
<g clip-path="url(#clip1_69_249)">
<mask id="mask0_69_249" style="mask-type:luminance" maskUnits="userSpaceOnUse" x="16" y="12" width="77" height="77">
<path d="M92.3462 12H16V88.3462H92.3462V12Z" fill="white"/>
</mask>
<g mask="url(#mask0_69_249)">
<mask id="mask1_69_249" style="mask-type:luminance" maskUnits="userSpaceOnUse" x="16" y="12" width="77" height="77">
<path d="M16 12H92.3461V88.3462H16V12Z" fill="white"/>
</mask>
<g mask="url(#mask1_69_249)">
<path d="M56.5634 43.5487V87.2275H51.7822V45.3915" stroke="#CFB99A" stroke-width="2.2367" stroke-miterlimit="10" stroke-linecap="round" stroke-linejoin="round"/>
<path d="M56.7345 74.0757C63.5626 77.3048 69.7119 80.8471 69.7119 87.2275H56.5635" stroke="#CFB99A" stroke-width="2.2367" stroke-miterlimit="10" stroke-linecap="round" stroke-linejoin="round"/>
<path d="M69.7122 29.8528C69.7122 36.2312 63.5666 39.7733 56.7412 43.0016" stroke="#CFB99A" stroke-width="2.2367" stroke-miterlimit="10" stroke-linecap="round" stroke-linejoin="round"/>
<path d="M56.5654 57.2617C63.4604 60.5122 69.7116 64.0602 69.7116 70.4931V87.2275" stroke="#CFB99A" stroke-width="2.2367" stroke-miterlimit="10" stroke-linecap="round" stroke-linejoin="round"/>
<path d="M38.6338 41.8055V58.5399" stroke="#CFB99A" stroke-width="2.2367" stroke-miterlimit="10" stroke-linecap="round" stroke-linejoin="round"/>
<path d="M51.6055 71.6892C44.7798 68.4609 38.6338 64.9187 38.6338 58.5401C38.6338 44.1964 69.7119 44.1964 69.7119 29.8526V13.1181C69.7119 27.4618 38.6338 27.4618 38.6338 41.8057" stroke="#CFB99A" stroke-width="2.2367" stroke-miterlimit="10" stroke-linecap="round" stroke-linejoin="round"/>
<path d="M38.6338 53.7587C38.6338 39.415 69.7119 39.415 69.7119 25.0712" stroke="#CFB99A" stroke-width="2.2367" stroke-miterlimit="10" stroke-linecap="round" stroke-linejoin="round"/>
<path d="M38.6338 58.5399H51.7822" stroke="#CFB99A" stroke-width="2.2367" stroke-miterlimit="10" stroke-linecap="round" stroke-linejoin="round"/>
<path d="M51.7822 52.5631H41.0244" stroke="#CFB99A" stroke-width="2.2367" stroke-miterlimit="10" stroke-linecap="round" stroke-linejoin="round"/>
<path d="M50.5869 64.5165H41.0244" stroke="#CFB99A" stroke-width="2.2367" stroke-miterlimit="10" stroke-linecap="round" stroke-linejoin="round"/>
<path d="M56.5635 81.2511H67.3213" stroke="#CFB99A" stroke-width="2.2367" stroke-miterlimit="10" stroke-linecap="round" stroke-linejoin="round"/>
<path d="M61.3447 68.1027V59.9845" stroke="#CFB99A" stroke-width="2.2367" stroke-miterlimit="10" stroke-linecap="round" stroke-linejoin="round"/>
<path d="M61.3447 76.0713V72.8838" stroke="#CFB99A" stroke-width="2.2367" stroke-miterlimit="10" stroke-linecap="round" stroke-linejoin="round"/>
<path d="M66.126 80.1301V63.321" stroke="#CFB99A" stroke-width="2.2367" stroke-miterlimit="10" stroke-linecap="round" stroke-linejoin="round"/>
<path d="M42.2197 46.0636V34.484" stroke="#CFB99A" stroke-width="2.2367" stroke-miterlimit="10" stroke-linecap="round" stroke-linejoin="round"/>
<path d="M47.001 42.7769V31.1475" stroke="#CFB99A" stroke-width="2.2367" stroke-miterlimit="10" stroke-linecap="round" stroke-linejoin="round"/>
<path d="M51.7822 40.3489V28.707" stroke="#CFB99A" stroke-width="2.2367" stroke-miterlimit="10" stroke-linecap="round" stroke-linejoin="round"/>
<path d="M56.5635 38.0701V26.5278" stroke="#CFB99A" stroke-width="2.2367" stroke-miterlimit="10" stroke-linecap="round" stroke-linejoin="round"/>
<path d="M61.3447 26.2666V24.1377" stroke="#CFB99A" stroke-width="2.2367" stroke-miterlimit="10" stroke-linecap="round" stroke-linejoin="round"/>
<path d="M61.3447 35.5675V31.048" stroke="#CFB99A" stroke-width="2.2367" stroke-miterlimit="10" stroke-linecap="round" stroke-linejoin="round"/>
<path d="M66.126 32.243V20.5513" stroke="#CFB99A" stroke-width="2.2367" stroke-miterlimit="10" stroke-linecap="round" stroke-linejoin="round"/>
</g>
</g>
</g>
</g>
<defs>
<clipPath id="clip0_69_249">
<rect width="114" height="110" fill="white"/>
</clipPath>
<clipPath id="clip1_69_249">
<rect width="76.3462" height="76.3462" fill="white" transform="translate(16 12)"/>
</clipPath>
</defs>
</svg>
