<svg width="59" height="59" viewBox="0 0 59 59" fill="none" xmlns="http://www.w3.org/2000/svg">
<g clip-path="url(#clip0_95_906)">
<path d="M56.309 49.053C56.309 43.4753 53.2769 39.1062 49.4063 39.1062H47.8379C48.0756 38.2634 48.2055 37.376 48.2055 36.4581C48.2055 33.2714 46.843 31.1392 45.4005 28.8819C43.5178 25.9354 41.3838 22.5958 41.3838 15.4346C41.3838 14.7027 40.922 14.0504 40.2316 13.8071C39.5415 13.5642 38.7725 13.7827 38.3137 14.3527C38.1872 14.5099 35.6684 17.6583 33.2312 22.0465C31.4609 18.8969 29.8193 14.6928 29.8193 7.59388C29.8193 6.86196 29.3575 6.20965 28.6672 5.96632C27.9767 5.72312 27.2081 5.94182 26.7492 6.51187C26.6255 6.66557 23.6859 10.3354 20.7092 15.5601C16.6543 22.6778 14.5982 28.9788 14.5982 34.2881C14.5982 36.0016 14.9618 37.6317 15.6145 39.1062H9.5921C5.72138 39.1062 2.68945 43.4755 2.68945 49.0532C2.68945 54.6309 5.72138 59 9.5921 59H49.4062C52.8044 59 55.5554 55.632 56.1767 51.0354C56.2324 50.6939 56.309 49.3867 56.309 49.053ZM26.6455 12.5498C27.4718 19.5477 29.9782 23.476 31.8999 26.4882C32.237 27.0165 32.8358 27.3205 33.4592 27.2826C34.0847 27.2447 34.6405 26.8707 34.9111 26.3056C35.9859 24.0615 37.2129 22 38.2829 20.3535C39.0464 25.3472 40.9185 28.2772 42.4924 30.7402C43.8054 32.7952 44.7542 34.28 44.7542 36.4581C44.7542 38.4181 43.8574 40.1725 42.4525 41.3326C42.8405 39.7022 42.5603 37.9853 41.6213 36.5077L41.4074 36.1721C40.6452 34.9793 39.7812 33.6273 39.0124 31.9869C38.7294 31.3831 38.1238 30.9964 37.457 30.9936C37.4544 30.9936 37.4521 30.9936 37.4497 30.9936C36.7857 30.9936 36.1803 31.3747 35.8934 31.9739L35.1515 33.523C34.7322 34.3985 33.9362 34.5386 33.6134 34.5582C33.2896 34.5782 32.4834 34.535 31.9612 33.7166L30.8147 31.9196C29.6366 30.073 28.1704 27.775 27.0234 24.5964C26.7917 23.9544 26.2031 23.5091 25.5222 23.4608C24.8408 23.4134 24.1957 23.7704 23.8756 24.3735C20.9671 29.8558 19.4032 34.8274 19.3398 38.7797C18.5236 37.4758 18.0497 35.9368 18.0497 34.2884C18.0497 26.5874 23.2735 17.5688 26.6455 12.5498ZM26.5239 42.7777C26.4645 42.7776 26.406 42.7745 26.347 42.7732C24.3746 42.6734 22.7955 41.0502 22.7886 39.0693C22.7793 36.4005 23.6413 33.0736 25.3023 29.318C26.1912 31.0895 27.1091 32.5283 27.905 33.776L29.0516 35.573C30.0977 37.2126 31.8816 38.1199 33.8226 38.0032C35.2381 37.9173 36.5044 37.2998 37.412 36.2917C37.7851 36.913 38.1518 37.487 38.4987 38.0299L38.7082 38.3586C39.28 39.2584 39.3151 40.3533 38.802 41.2872C38.2891 42.2207 37.3467 42.7781 36.2812 42.7781H26.5398C26.5344 42.7781 26.5292 42.7777 26.5239 42.7777ZM9.5921 42.5575C11.2245 42.5575 13.0435 45.2252 13.0435 49.0532C13.0435 52.881 11.2245 55.5487 9.5921 55.5487C7.95971 55.5487 6.14084 52.881 6.14084 49.0532C6.14084 45.2251 7.95971 42.5575 9.5921 42.5575ZM49.4063 55.5487H14.8575C15.8819 53.8176 16.4949 51.5582 16.4949 49.0532C16.4949 46.5481 15.8819 44.2887 14.8575 42.5575H17.9334C20.1075 44.8195 23.1619 46.2295 26.5395 46.2295H26.5397H36.2811H38.4343C41.5162 46.2295 44.2678 44.7937 46.06 42.5575H49.4063C50.1637 42.5575 50.9658 43.1414 51.6067 44.1593C52.3432 45.329 52.788 46.9463 52.8495 48.6473H47.7436C46.7905 48.6473 46.0179 49.4199 46.0179 50.373C46.0179 51.326 46.7905 52.0987 47.7436 52.0987H52.424C52.2178 52.7847 51.9431 53.4128 51.6067 53.9469C50.9657 54.9648 50.1637 55.5487 49.4063 55.5487Z" fill="#CFB99A"/>
<path d="M39.6573 5.55949C40.6104 5.55949 41.383 4.78684 41.383 3.8338V1.72569C41.383 0.772649 40.6104 0 39.6573 0C38.7043 0 37.9316 0.772649 37.9316 1.72569V3.8338C37.9316 4.78684 38.7043 5.55949 39.6573 5.55949Z" fill="#CFB99A"/>
</g>
<defs>
<clipPath id="clip0_95_906">
<rect width="59" height="59" fill="white"/>
</clipPath>
</defs>
</svg>
