<svg width="22" height="22" viewBox="0 0 22 22" fill="none" xmlns="http://www.w3.org/2000/svg">
<path d="M18.777 3.22041C14.4806 -1.0747 7.51577 -1.07367 3.22065 3.22277C-1.07446 7.51922 -1.07343 14.484 3.22302 18.7791C7.51946 23.0742 14.4843 23.0732 18.7794 18.7768C20.8421 16.7134 22.0007 13.915 22 10.9974C21.9994 8.08026 20.8401 5.28282 18.777 3.22041ZM16.6591 15.3226C16.6587 15.3231 16.6582 15.3236 16.6577 15.3241V15.3205L16.1003 15.8741C15.3795 16.604 14.3298 16.9043 13.332 16.6661C12.3267 16.397 11.3711 15.9687 10.5013 15.3975C9.69325 14.881 8.94439 14.2773 8.26832 13.5971C7.64626 12.9796 7.08741 12.3016 6.59997 11.5731C6.06682 10.7893 5.64482 9.93539 5.34597 9.03576C5.00338 7.9789 5.28728 6.81921 6.07932 6.0401L6.73197 5.38745C6.91343 5.20518 7.20828 5.20453 7.39051 5.38599C7.39099 5.38646 7.3915 5.38694 7.39197 5.38745L9.45263 7.4481C9.6349 7.62956 9.63554 7.92441 9.45409 8.10664C9.45362 8.10712 9.45314 8.10759 9.45263 8.1081L8.24263 9.3181C7.89544 9.66151 7.85178 10.2072 8.13997 10.6015C8.57761 11.2021 9.06191 11.7672 9.58832 12.2918C10.1752 12.8812 10.8133 13.4175 11.495 13.8941C11.8889 14.1689 12.4229 14.1226 12.7636 13.7841L13.9333 12.5961C14.1147 12.4139 14.4096 12.4132 14.5918 12.5947C14.5923 12.5952 14.5928 12.5956 14.5933 12.5961L16.6576 14.6641C16.8399 14.8456 16.8406 15.1404 16.6591 15.3226Z" fill="#CFB99A"/>
</svg>
