<svg width="22" height="22" viewBox="0 0 22 22" fill="none" xmlns="http://www.w3.org/2000/svg">
<g clip-path="url(#clip0_99_465)">
<path d="M10.9996 4.8125C8.58271 4.8125 7.13965 6.32328 7.13965 8.85363C7.13965 10.2936 9.05296 13.6204 10.9989 16.2766C12.9332 13.6115 14.8596 10.3259 14.8596 8.85363C14.8596 6.32328 13.4165 4.8125 10.9996 4.8125ZM10.9955 10.5851C10.0591 10.5851 9.30012 9.82609 9.30012 8.88972C9.30012 7.95334 10.0591 7.19434 10.9955 7.19434C11.9319 7.19434 12.6909 7.95334 12.6909 8.88972C12.6909 9.82609 11.9319 10.5851 10.9955 10.5851Z" fill="#CFB99A"/>
<path d="M11 0C4.92491 0 0 4.92491 0 11C0 17.0751 4.92491 22 11 22C17.0751 22 22 17.0751 22 11C22 4.92491 17.0751 0 11 0ZM11.6442 17.7169L11 18.5625L10.3596 17.7169C9.88831 17.1009 5.76503 11.5961 5.76503 8.85363C5.76503 5.56359 7.81859 3.4375 11 3.4375C14.1814 3.4375 16.235 5.56359 16.235 8.85363C16.235 11.5919 12.1113 17.0968 11.6442 17.7169Z" fill="#CFB99A"/>
</g>
<defs>
<clipPath id="clip0_99_465">
<rect width="22" height="22" fill="white"/>
</clipPath>
</defs>
</svg>
