<svg width="22" height="22" viewBox="0 0 22 22" fill="none" xmlns="http://www.w3.org/2000/svg">
<g clip-path="url(#clip0_99_488)">
<path fill-rule="evenodd" clip-rule="evenodd" d="M11 0C17.0751 0 22 4.92486 22 11C22 17.0751 17.0751 22 11 22C4.92486 22 0 17.0751 0 11C0 4.92486 4.92486 0 11 0ZM5.73594 14.9276H16.2642C16.3227 14.9275 16.3808 14.9185 16.4365 14.9009L12.5115 11.2687L11.3497 12.1645C11.2495 12.2418 11.1265 12.2837 10.9999 12.2837C10.8733 12.2837 10.7503 12.2418 10.6501 12.1645L9.48849 11.2689L5.56329 14.901C5.61915 14.9186 5.67737 14.9276 5.73594 14.9277V14.9276ZM8.56853 10.5592L5.16325 7.93341V13.7104L8.56853 10.5592ZM11 10.9878L16.0774 7.07266H5.92264L11 10.9878ZM16.8369 13.7104V7.93341L13.4314 10.5592L16.8369 13.7104ZM5.73594 16.0732H16.2642C16.7198 16.0727 17.1565 15.8914 17.4786 15.5693C17.8008 15.2471 17.9819 14.8104 17.9824 14.3548V7.64517C17.9819 7.18964 17.8007 6.7529 17.4786 6.43077C17.1565 6.10864 16.7198 5.92742 16.2643 5.92685H5.73594C5.28038 5.92739 4.84363 6.10859 4.5215 6.43073C4.19936 6.75286 4.01816 7.18961 4.01762 7.64517V14.3548C4.01812 14.8104 4.19932 15.2472 4.52146 15.5693C4.84359 15.8915 5.28036 16.0727 5.73594 16.0732Z" fill="#CFB99A"/>
</g>
<defs>
<clipPath id="clip0_99_488">
<rect width="22" height="22" fill="white"/>
</clipPath>
</defs>
</svg>
