<svg width="30" height="30" viewBox="0 0 30 30" fill="none" xmlns="http://www.w3.org/2000/svg">
<g clip-path="url(#clip0_95_261)">
<path d="M25.6066 4.39339C22.7735 1.56029 19.0066 0 15 0C10.9934 0 7.22649 1.56029 4.39339 4.39339C1.56029 7.22649 0 10.9932 0 14.9998C0 19.0066 1.56029 22.7733 4.39339 25.6064C7.22649 28.4397 10.9934 30 15 30C19.0066 30 22.7735 28.4397 25.6066 25.6066C28.4397 22.7733 30 19.0066 30 14.9998C30 10.9932 28.4397 7.22649 25.6066 4.39339ZM15 28.242C7.69821 28.242 1.75781 22.3016 1.75781 14.9998C1.75781 7.69821 7.69821 1.75781 15 1.75781C22.3018 1.75781 28.2422 7.69821 28.2422 15C28.2422 22.3016 22.3018 28.242 15 28.242Z" fill="#282828"/>
<path d="M24.7509 20.5747C25.6946 18.9311 26.2345 17.0275 26.2345 15.0001C26.2345 12.9726 25.6943 11.069 24.7509 9.42519C24.7438 9.411 24.7374 9.3968 24.7294 9.38307C24.7184 9.36407 24.7063 9.34645 24.6941 9.3286C23.7195 7.66898 22.3311 6.28058 20.6715 5.306C20.6539 5.29387 20.6363 5.28174 20.6175 5.27075C20.6035 5.26274 20.5891 5.25633 20.5749 5.24924C18.9313 4.30556 17.0275 3.76562 15.0001 3.76562C12.9724 3.76562 11.0688 4.30579 9.42496 5.24924C9.411 5.25633 9.3968 5.26274 9.38284 5.27075C9.3643 5.28151 9.34668 5.29364 9.32906 5.30554C7.66943 6.28012 6.28081 7.66852 5.306 9.32814C5.29387 9.34622 5.28174 9.36385 5.27052 9.38307C5.26251 9.39703 5.25587 9.41145 5.24878 9.42587C4.30556 11.0695 3.76562 12.9729 3.76562 14.9998C3.76562 17.027 4.30556 18.9304 5.24878 20.574C5.25587 20.5884 5.26251 20.6029 5.27075 20.6171C5.28311 20.6386 5.29662 20.6592 5.31058 20.6793C6.28493 22.3355 7.67172 23.7211 9.32883 24.6941C9.34645 24.7063 9.36407 24.7184 9.38284 24.7291C9.40207 24.7404 9.42175 24.7504 9.44144 24.76C11.0816 25.6978 12.9793 26.2343 15.0001 26.2343C17.0209 26.2343 18.9185 25.6978 20.5587 24.76C20.5784 24.7504 20.5978 24.7404 20.6173 24.7291C20.636 24.7184 20.6534 24.7063 20.6713 24.6944C22.3284 23.7211 23.7152 22.3353 24.6898 20.6791C24.7035 20.6589 24.717 20.6386 24.7294 20.6171C24.7374 20.6033 24.7438 20.5889 24.7509 20.5747ZM20.4774 22.7292L20.4683 22.7134C20.2254 22.2932 19.6878 22.1492 19.2676 22.3918C18.8471 22.6344 18.7031 23.1721 18.946 23.5923L18.9563 23.6101C18.0046 24.0491 16.9682 24.3348 15.879 24.4355V24.414C15.879 23.9287 15.4855 23.5351 15.0001 23.5351C14.5146 23.5351 14.1212 23.9287 14.1212 24.414V24.4355C13.0319 24.3348 11.9958 24.0491 11.0438 23.6101L11.0541 23.5923C11.297 23.1721 11.153 22.6344 10.7326 22.3918C10.3121 22.149 9.77446 22.2932 9.53185 22.7134L9.52269 22.7292C8.65202 22.1103 7.88985 21.3483 7.27095 20.4774L7.28651 20.4683C7.70697 20.2257 7.85094 19.6882 7.60832 19.2678C7.36548 18.8473 6.82806 18.7031 6.40761 18.946L6.38998 18.9563C5.95076 18.0044 5.66512 16.9682 5.56464 15.8787H5.58592C6.07138 15.8787 6.46483 15.4853 6.46483 14.9998C6.46483 14.5146 6.07138 14.1209 5.58592 14.1209H5.56464C5.66512 13.0317 5.95076 11.9955 6.38976 11.0436L6.40784 11.0541C6.54631 11.134 6.69737 11.172 6.84637 11.172C7.1501 11.172 7.44559 11.0143 7.60855 10.7321C7.85117 10.3119 7.70697 9.77423 7.28651 9.53162L7.27072 9.52246C7.88962 8.65179 8.65179 7.88962 9.52269 7.27072L9.53185 7.28651C9.69458 7.56873 9.99007 7.7262 10.2938 7.7262C10.4428 7.7262 10.5941 7.6882 10.7323 7.60832C11.1528 7.36548 11.2968 6.82806 11.0541 6.40761L11.0438 6.38976C11.9955 5.95076 13.0319 5.66512 14.1209 5.56464V5.58592C14.1209 6.07138 14.5146 6.46483 14.9998 6.46483C15.4853 6.46483 15.8787 6.07138 15.8787 5.58592V5.56464C16.9682 5.66512 18.0044 5.95076 18.9563 6.38976L18.946 6.40761C18.7031 6.82806 18.8471 7.36548 19.2673 7.60832C19.4058 7.6882 19.5569 7.7262 19.7061 7.7262C20.0098 7.7262 20.3053 7.56873 20.468 7.28674L20.4772 7.27072C21.3481 7.88962 22.1103 8.65179 22.7292 9.52269L22.7134 9.53185C22.2929 9.77446 22.1487 10.3119 22.3916 10.7323C22.5543 11.0145 22.8498 11.172 23.1535 11.172C23.3025 11.172 23.4536 11.134 23.5921 11.0541L23.6101 11.0438C24.0491 11.9955 24.3348 13.0319 24.4353 14.1212H24.414C23.9285 14.1212 23.5351 14.5146 23.5351 15.0001C23.5351 15.4853 23.9285 15.879 24.414 15.879H24.4353C24.3348 16.9682 24.0491 18.0046 23.6099 18.9563L23.5923 18.946C23.1718 18.7031 22.6342 18.8473 22.3916 19.2678C22.149 19.6882 22.2929 20.2257 22.7134 20.4683L22.7292 20.4774C22.1103 21.3481 21.3481 22.1103 20.4774 22.7292Z" fill="#282828"/>
<path d="M19.707 14.1208H15.8789V9.35132C15.8789 8.86609 15.4855 8.47241 15 8.47241C14.5145 8.47241 14.1211 8.86609 14.1211 9.35132V14.9997C14.1211 15.4851 14.5145 15.8786 15 15.8786H19.707C20.1924 15.8786 20.5859 15.4851 20.5859 14.9997C20.5859 14.5144 20.1924 14.1208 19.707 14.1208Z" fill="#282828"/>
</g>
<defs>
<clipPath id="clip0_95_261">
<rect width="30" height="30" fill="white"/>
</clipPath>
</defs>
</svg>
