<svg width="31" height="31" viewBox="0 0 31 31" fill="none" xmlns="http://www.w3.org/2000/svg">
<g clip-path="url(#clip0_95_265)">
<path d="M16.7237 14.2764V7.34868C16.7237 7.02414 16.5948 6.71289 16.3653 6.48341C16.1358 6.25392 15.8246 6.125 15.5001 6.125C15.1755 6.125 14.8643 6.25392 14.6348 6.48341C14.4053 6.71289 14.2764 7.02414 14.2764 7.34868V14.2764H7.34868C7.02414 14.2764 6.71289 14.4053 6.48341 14.6348C6.25392 14.8643 6.125 15.1755 6.125 15.5001C6.125 15.8246 6.25392 16.1358 6.48341 16.3653C6.71289 16.5948 7.02414 16.7237 7.34868 16.7237H14.2764V23.6514C14.2764 23.976 14.4053 24.2872 14.6348 24.5167C14.8643 24.7462 15.1755 24.8751 15.5001 24.8751C15.8246 24.8751 16.1358 24.7462 16.3653 24.5167C16.5948 24.2872 16.7237 23.976 16.7237 23.6514V16.7237H23.6514C23.976 16.7237 24.2872 16.5948 24.5167 16.3653C24.7462 16.1358 24.8751 15.8246 24.8751 15.5001C24.8751 15.1755 24.7462 14.8643 24.5167 14.6348C24.2872 14.4053 23.976 14.2764 23.6514 14.2764H16.7237Z" fill="#282828"/>
<path d="M15.5003 0.407959C12.5154 0.407959 9.59748 1.2931 7.11559 2.95144C4.63371 4.60978 2.69931 6.96684 1.55703 9.72457C0.414742 12.4823 0.115868 15.5168 0.6982 18.4444C1.28053 21.372 2.71792 24.0611 4.82859 26.1718C6.93925 28.2825 9.62841 29.7198 12.556 30.3022C15.4836 30.8845 18.5181 30.5856 21.2758 29.4434C24.0335 28.3011 26.3906 26.3667 28.0489 23.8848C29.7073 21.4029 30.5924 18.485 30.5924 15.5001C30.5879 11.4988 28.9964 7.66268 26.167 4.83334C23.3377 2.00401 19.5016 0.412493 15.5003 0.407959ZM15.5003 28.1448C12.9994 28.1448 10.5547 27.4032 8.47528 26.0138C6.39586 24.6244 4.77515 22.6495 3.8181 20.339C2.86105 18.0285 2.61064 15.486 3.09854 13.0332C3.58644 10.5804 4.79074 8.32728 6.55914 6.55889C8.32753 4.79049 10.5806 3.58619 13.0335 3.09829C15.4863 2.61039 18.0287 2.8608 20.3392 3.81785C22.6498 4.7749 24.6246 6.39561 26.014 8.47503C27.4035 10.5544 28.1451 12.9992 28.1451 15.5001C28.1414 18.8525 26.808 22.0666 24.4374 24.4372C22.0669 26.8077 18.8528 28.1411 15.5003 28.1448Z" fill="#282828"/>
</g>
<defs>
<clipPath id="clip0_95_265">
<rect width="31" height="31" fill="white"/>
</clipPath>
</defs>
</svg>
