<svg width="30" height="30" viewBox="0 0 30 30" fill="none" xmlns="http://www.w3.org/2000/svg">
<g clip-path="url(#clip0_95_268)">
<path d="M28.2129 28.2423H21.1816C20.0866 28.2423 18.978 28.4189 17.9755 28.753C15.4931 29.5805 12.9076 30.0001 10.2909 30.0001H5.30273C3.84885 30.0001 2.66602 28.8172 2.66602 27.3634C2.66602 27.0202 2.73258 26.6925 2.8524 26.3915C1.73344 26.0865 0.908203 25.062 0.908203 23.8477C0.908203 23.1729 1.16332 22.5568 1.58174 22.0899C1.16326 21.623 0.908203 21.0069 0.908203 20.3321C0.908203 19.6575 1.16291 19.0411 1.58121 18.5743C1.16285 18.1075 0.908203 17.4911 0.908203 16.8165C0.908203 15.3626 2.09104 14.1798 3.54492 14.1798H7.54957C5.97563 11.3725 5.6127 8.81 6.56607 7.04926C7.1673 5.9389 8.219 5.29549 9.45158 5.284C9.75234 5.2809 10.3069 5.38402 10.6476 6.10373C10.7812 6.38603 10.8679 6.72166 10.9776 7.14658C11.3677 8.6576 12.0938 11.4702 16.0908 14.2405C17.0208 14.885 17.3999 15.4028 18.7438 16.7099C19.3609 17.327 20.2722 17.6954 21.1816 17.6954H28.2129C28.6983 17.6954 29.0918 18.0889 29.0918 18.5743V27.3634C29.0918 27.8487 28.6983 28.2423 28.2129 28.2423ZM17.5008 17.9528C16.1163 16.6002 15.836 16.2025 15.0895 15.6852C13.1402 14.3342 11.6492 12.7944 10.6579 11.1087C9.81498 9.67525 9.49037 8.41795 9.27557 7.58597C9.23244 7.41892 9.18322 7.22826 9.13828 7.07832C8.70416 7.17365 8.34662 7.45256 8.11178 7.88621C7.83914 8.38982 7.13766 10.3271 9.55875 14.113C9.64916 14.2544 9.69721 14.4186 9.69721 14.5865C9.69721 14.72 9.70266 14.8549 9.71344 14.9875C9.75492 15.4988 9.3508 15.9375 8.8374 15.9375H3.54492C3.06029 15.9375 2.66602 16.3318 2.66602 16.8164C2.66602 17.3011 3.06029 17.6953 3.54492 17.6953H5.30273C5.78812 17.6953 6.18164 18.0888 6.18164 18.5742C6.18164 19.0596 5.78812 19.4531 5.30273 19.4531H3.54492C3.06029 19.4531 2.66602 19.8474 2.66602 20.332C2.66602 20.8167 3.06029 21.211 3.54492 21.211H5.30273C5.78812 21.211 6.18164 21.6045 6.18164 22.0899C6.18164 22.5753 5.78812 22.9688 5.30273 22.9688H3.54492C3.06029 22.9688 2.66602 23.363 2.66602 23.8477C2.66602 24.3323 3.06029 24.7266 3.54492 24.7266H5.30273C5.78812 24.7266 6.18164 25.12 6.18164 25.6055C6.18164 26.0909 5.78818 26.4844 5.30273 26.4844C4.81811 26.4844 4.42383 26.8787 4.42383 27.3633C4.42383 27.8479 4.81811 28.2422 5.30273 28.2422H10.2909C12.7184 28.2422 15.1168 27.853 17.4197 27.0854C18.3299 26.782 19.3125 26.5895 20.3027 26.5171V19.3781C19.2404 19.1994 18.2505 18.7025 17.5008 17.9528ZM27.334 19.4532H22.0605V26.4845H27.334V19.4532Z" fill="black"/>
<path d="M8.81836 4.39453C8.33297 4.39453 7.93945 4.00102 7.93945 3.51562V0.878906C7.93945 0.393516 8.33297 0 8.81836 0C9.30375 0 9.69727 0.393516 9.69727 0.878906V3.51562C9.69727 4.00102 9.30375 4.39453 8.81836 4.39453Z" fill="black"/>
<path d="M12.9555 5.01601C12.6123 5.35925 12.0558 5.35925 11.7125 5.01601C11.3693 4.67276 11.3693 4.1163 11.7125 3.77306L13.4703 2.01524C13.8135 1.672 14.37 1.672 14.7133 2.01524C15.0565 2.35849 15.0565 2.91495 14.7133 3.25819L12.9555 5.01601Z" fill="black"/>
<path d="M4.68126 5.01601L2.92345 3.25819C2.58021 2.91495 2.58021 2.35849 2.92345 2.01524C3.26663 1.672 3.82315 1.672 4.1664 2.01524L5.92421 3.77306C6.26745 4.1163 6.26745 4.67276 5.92421 5.01601C5.58097 5.35919 5.02444 5.35925 4.68126 5.01601Z" fill="black"/>
<path d="M24.6973 24.7266C24.2119 24.7266 23.8184 24.3331 23.8184 23.8477C23.8184 23.3622 24.2119 22.9688 24.6973 22.9688C25.1827 22.9688 25.5762 23.3622 25.5762 23.8477C25.5762 24.3331 25.1827 24.7266 24.6973 24.7266Z" fill="black"/>
</g>
<defs>
<clipPath id="clip0_95_268">
<rect width="30" height="30" fill="white" transform="matrix(-1 0 0 1 30 0)"/>
</clipPath>
</defs>
</svg>
