<svg width="65" height="65" viewBox="0 0 65 65" fill="none" xmlns="http://www.w3.org/2000/svg">
<path d="M57.4801 0.833496H8.35254C4.20627 0.833496 0.833008 4.20676 0.833008 8.35303V57.4806C0.833008 61.6269 4.20627 65.0002 8.35254 65.0002H57.4801C61.6264 65.0002 64.9997 61.6269 64.9997 57.4806V8.35303C64.9997 4.20676 61.6264 0.833496 57.4801 0.833496ZM59.9867 57.4806C59.9867 58.8627 58.8622 59.9871 57.4801 59.9871H43.193V39.5591H50.9369L52.2165 31.7889H43.193V26.3999C43.193 24.2725 44.8254 22.6401 46.9528 22.6401H52.0911V14.87H46.9528C40.5708 14.87 35.4256 20.0396 35.4256 26.4217V31.7889H27.9033V39.5591H35.4256V59.9871H8.35254C6.97045 59.9871 5.84603 58.8627 5.84603 57.4806V8.35303C5.84603 6.97094 6.97045 5.84652 8.35254 5.84652H57.4801C58.8622 5.84652 59.9867 6.97094 59.9867 8.35303V57.4806Z" fill="#CFB99A"/>
</svg>
