<svg width="65" height="65" viewBox="0 0 65 65" fill="none" xmlns="http://www.w3.org/2000/svg">
<g clip-path="url(#clip0_69_1714)">
<path d="M48.1253 0H16.0427C7.22082 0 0.00146484 7.21936 0.00146484 16.0413V48.1254C0.00146484 56.945 7.22082 64.1667 16.0427 64.1667H48.1253C56.9472 64.1667 64.1666 56.945 64.1666 48.1254V16.0413C64.1666 7.21936 56.9472 0 48.1253 0ZM58.8192 48.1254C58.8192 54.0206 54.0237 58.8193 48.1253 58.8193H16.0427C10.1468 58.8193 5.34882 54.0206 5.34882 48.1254V16.0413C5.34882 10.1445 10.1468 5.34735 16.0427 5.34735H48.1253C54.0237 5.34735 58.8192 10.1445 58.8192 16.0413V48.1254Z" fill="#CFB99A"/>
<path d="M49.4639 18.7145C51.6788 18.7145 53.4743 16.919 53.4743 14.7042C53.4743 12.4893 51.6788 10.6938 49.4639 10.6938C47.2491 10.6938 45.4536 12.4893 45.4536 14.7042C45.4536 16.919 47.2491 18.7145 49.4639 18.7145Z" fill="#CFB99A"/>
<path d="M32.0833 16.0417C23.222 16.0417 16.042 23.2226 16.042 32.083C16.042 40.9402 23.222 48.1259 32.0833 48.1259C40.942 48.1259 48.1245 40.9402 48.1245 32.083C48.1245 23.2226 40.942 16.0417 32.0833 16.0417ZM32.0833 42.7785C26.1776 42.7785 21.3893 37.9903 21.3893 32.083C21.3893 26.1758 26.1776 21.3891 32.0833 21.3891C37.9889 21.3891 42.7772 26.1758 42.7772 32.083C42.7772 37.9903 37.9889 42.7785 32.0833 42.7785Z" fill="#CFB99A"/>
</g>
<defs>
<clipPath id="clip0_69_1714">
<rect width="64.1667" height="64.1667" fill="white"/>
</clipPath>
</defs>
</svg>
